<?xml version="1.0" standalone="no"?><!DOCTYPE svg PUBLIC "-//W3C//DTD SVG 1.1//EN" "http://www.w3.org/Graphics/SVG/1.1/DTD/svg11.dtd"><svg t="1589189113911" class="icon" viewBox="0 0 1024 1024" version="1.1" xmlns="http://www.w3.org/2000/svg" p-id="535" xmlns:xlink="http://www.w3.org/1999/xlink" width="200" height="200"><defs><style type="text/css"></style></defs><path d="M622.89408 502.75328l-295.93088-3.38944c-33.92512-0.39936-61.62944 33.792-61.9264 76.34432l-0.80896 121.43104c-0.26112 42.54208 27.0336 77.35296 60.91776 77.71136l295.95648 3.44064c33.89952 0.38912 61.63968-33.82784 61.9264-76.32896l0.78336-121.45664c0.27648-42.5472-26.98752-77.35808-60.91776-77.75232z m-1.12128 71.36256l-288.61952-0.4352c-7.49568-0.02048-13.54752-9.38496-13.54752-20.95104 0.01536-11.58656 6.07744-20.96128 13.57824-20.96128l288.60928 0.4352c7.4752 0.04096 13.55776 9.39008 13.55776 20.99712-0.02048 11.5712-6.12352 20.93568-13.57824 20.9152zM715.02336 696.39168l98.06336 69.62176 1.01376-284.45184-98.2528 76.37504zM338.52416 205.8752C267.50464 205.8752 209.92 263.45984 209.92 334.50496c0 71.01952 57.58464 128.58368 128.60416 128.58368 71.02976 0 128.60928-57.56416 128.60928-128.58368 0-71.04512-57.57952-128.62976-128.60928-128.62976zM283.68384 400.71168a30.75072 30.75072 0 0 1-42.01472-11.24864 30.74048 30.74048 0 0 1 11.24864-42.0096 30.75584 30.75584 0 0 1 30.76608 53.25824z m12.0832-91.86304a30.78144 30.78144 0 0 1-42.01984 11.24864 30.75584 30.75584 0 1 1 42.01984-11.24864zM337.7152 445.8496a30.7456 30.7456 0 1 1-0.02048-61.48608 30.75584 30.75584 0 0 1 30.7712 30.74048 30.75072 30.75072 0 0 1-30.75072 30.7456z m-14.26944-111.34464a15.08352 15.08352 0 1 1 30.17216-0.0256 15.08352 15.08352 0 0 1-30.17216 0.0256z m15.88736-49.8944a30.7456 30.7456 0 1 1 0-61.48608c17.01376 0 30.7712 13.7728 30.7712 30.7456a30.73024 30.73024 0 0 1-30.7712 30.74048z m95.24224 106.27072a30.78656 30.78656 0 0 1-42.0352 11.26912 30.7712 30.7712 0 0 1 30.7712-53.28384 30.78144 30.78144 0 0 1 11.264 42.01472z m0.80896-111.36a30.74048 30.74048 0 0 1-11.24864 41.99936 30.74048 30.74048 0 0 1-42.01984-11.24864 30.75584 30.75584 0 0 1 53.26848-30.75072zM637.75744 205.8752c-71.01952 0-128.58368 57.58464-128.58368 128.62976 0 71.01952 57.56416 128.58368 128.58368 128.58368 71.05024 0 128.62976-57.56416 128.62976-128.58368 0-71.04512-57.58464-128.62976-128.62976-128.62976z m-54.8352 194.83648a30.76096 30.76096 0 0 1-30.7712-53.25824 30.79168 30.79168 0 0 1 42.04032 11.24352 30.7712 30.7712 0 0 1-11.26912 42.01472z m12.08832-91.86304a30.78144 30.78144 0 0 1-42.02496 11.24864 30.7456 30.7456 0 0 1-11.25376-41.99424 30.73536 30.73536 0 0 1 42.0096-11.26912 30.76096 30.76096 0 0 1 11.26912 42.01472z m41.9328 137.00096a30.7456 30.7456 0 0 1-0.01536-61.48608 30.76096 30.76096 0 0 1 30.78656 30.74048 30.75584 30.75584 0 0 1-30.7712 30.7456z m-14.26432-111.34464a15.08352 15.08352 0 1 1 30.16192-0.03584 15.08352 15.08352 0 0 1-30.16192 0.03584z m15.90784-49.8944a30.7456 30.7456 0 1 1 0.01536-61.47584 30.7456 30.7456 0 0 1-0.01536 61.47584z m95.21152 106.27072a30.75584 30.75584 0 0 1-42.0096 11.26912 30.78656 30.78656 0 0 1-11.24352-42.03008 30.7456 30.7456 0 0 1 41.99424-11.25376 30.7456 30.7456 0 0 1 11.25888 42.01472z m0.81408-111.36a30.72 30.72 0 0 1-11.24864 41.99936 30.72 30.72 0 0 1-41.99936-11.24864 30.76608 30.76608 0 0 1 11.24864-42.01984 30.73024 30.73024 0 0 1 41.99936 11.26912z" p-id="536"></path></svg>