<?xml version="1.0" standalone="no"?><!DOCTYPE svg PUBLIC "-//W3C//DTD SVG 1.1//EN" "http://www.w3.org/Graphics/SVG/1.1/DTD/svg11.dtd"><svg t="1589189164358" class="icon" viewBox="0 0 1077 1024" version="1.1" xmlns="http://www.w3.org/2000/svg" p-id="547" xmlns:xlink="http://www.w3.org/1999/xlink" width="210.3515625" height="200"><defs><style type="text/css"></style></defs><path d="M942.511158 0.538947H135.814737C61.709474 0.538947 1.401263 57.990737 1.401263 128.538947v767.514948C1.401263 966.602105 61.709474 1024 135.868632 1024h806.642526c74.159158 0 134.413474-57.344 134.413474-127.946105V128.538947c0-70.602105-60.254316-127.946105-134.413474-127.946105z m67.206737 895.461053c0 35.301053-30.181053 63.973053-67.206737 63.973053H135.814737c-37.079579 0-67.260632-28.672-67.260632-63.973053V128.538947c0-35.301053 30.181053-63.973053 67.260632-63.973052h806.642526c37.025684 0 67.206737 28.672 67.206737 63.919158v767.514947z" fill="#666666" p-id="548"></path><path d="M685.056 646.844632l124.820211-94.962527 80.357052 50.930527a34.816 34.816 0 0 0 46.618948-8.838737 30.989474 30.989474 0 0 0-9.32379-44.355369l-100.783158-63.973052a34.492632 34.492632 0 0 0-39.397052 1.994105l-0.323369-0.377263-159.851789 121.694316-237.029053-155.055158c-0.107789 0-0.161684 0-0.269474-0.10779a35.247158 35.247158 0 0 0-9.000421-3.664842c-1.077895-0.269474-1.994105-0.970105-3.072-1.185684-2.856421-0.538947-5.766737-0.215579-8.730947-0.053895-1.347368 0.053895-2.694737-0.269474-4.042105 0-1.509053 0.215579-2.856421 1.077895-4.311579 1.616842-2.694737 0.808421-5.443368 1.509053-7.922527 3.018106l-0.323368 0.161684-201.674105 127.89221a31.043368 31.043368 0 0 0-9.32379 44.355369 34.816 34.816 0 0 0 46.618948 8.892631l182.703157-115.873684 519.006316 339.482947c5.874526 3.772632 12.503579 5.605053 19.078737 5.605053 10.671158 0 21.180632-4.850526 27.701895-13.850947a31.043368 31.043368 0 0 0-8.623158-44.463158l-242.903579-158.881684M623.184842 416.336842c83.429053 0 151.282526-64.565895 151.282526-143.898947 0-79.386947-67.907368-143.898947-151.282526-143.898948s-151.228632 64.512-151.228631 143.898948c0 79.333053 67.853474 143.898947 151.228631 143.898947z m0-223.878737c46.349474 0 84.075789 35.84 84.07579 79.97979 0 44.085895-37.726316 79.925895-84.07579 79.925894-46.349474 0-84.021895-35.84-84.021895-79.925894 0-44.139789 37.726316-79.979789 84.07579-79.97979z" fill="#666666" p-id="549"></path></svg>