<?xml version="1.0" standalone="no"?><!DOCTYPE svg PUBLIC "-//W3C//DTD SVG 1.1//EN" "http://www.w3.org/Graphics/SVG/1.1/DTD/svg11.dtd"><svg t="1589189210347" class="icon" viewBox="0 0 1033 1024" version="1.1" xmlns="http://www.w3.org/2000/svg" p-id="547" xmlns:xlink="http://www.w3.org/1999/xlink" width="201.7578125" height="200"><defs><style type="text/css"></style></defs><path d="M876.088889 411.022222H196.266667c-39.822222 0-71.111111-31.288889-71.111111-71.111111s31.288889-71.111111 71.111111-71.111111h679.822222c39.822222 0 71.111111 31.288889 71.111111 71.111111s-31.288889 71.111111-71.111111 71.111111zM837.688889 755.2H157.866667c-39.822222 0-71.111111-31.288889-71.111111-71.111111s31.288889-71.111111 71.111111-71.111111h679.822222c39.822222 0 71.111111 31.288889 71.111111 71.111111s-31.288889 71.111111-71.111111 71.111111z" p-id="548"></path><path d="M649.955556 923.022222h-8.533334c-38.4-4.266667-66.844444-39.822222-62.577778-78.222222l76.8-679.822222c4.266667-38.4 39.822222-66.844444 78.222223-62.577778 38.4 4.266667 66.844444 39.822222 62.577777 78.222222l-76.8 679.822222c-2.844444 35.555556-34.133333 62.577778-69.688888 62.577778zM307.2 923.022222H298.666667c-38.4-4.266667-66.844444-39.822222-62.577778-78.222222l75.377778-679.822222c4.266667-38.4 39.822222-66.844444 78.222222-62.577778 38.4 4.266667 66.844444 39.822222 62.577778 78.222222l-75.377778 679.822222c-2.844444 35.555556-34.133333 62.577778-69.688889 62.577778z" p-id="549"></path></svg>